<mxfile host="app.diagrams.net" modified="2024-03-27T17:42:08.563Z" agent="Mozilla/5.0 (Windows NT 10.0; Win64; x64) AppleWebKit/537.36 (KHTML, like Gecko) Chrome/123.0.0.0 Safari/537.36" etag="9aw2aVjJNlif9xWwOuIA" version="24.2.0" type="device">
  <diagram name="Página-1" id="mbndWr5OX4DDNthK3ivE">
    <mxGraphModel dx="1707" dy="468" grid="1" gridSize="10" guides="1" tooltips="1" connect="1" arrows="1" fold="1" page="1" pageScale="1" pageWidth="827" pageHeight="1169" math="0" shadow="0">
      <root>
        <mxCell id="0" />
        <mxCell id="1" parent="0" />
        <mxCell id="TZn8y6N1ud7AlxYmmgrt-4" value="" style="ellipse;html=1;shape=startState;fillColor=#000000;strokeColor=#ff0000;" vertex="1" parent="1">
          <mxGeometry x="430" y="20" width="30" height="30" as="geometry" />
        </mxCell>
        <mxCell id="TZn8y6N1ud7AlxYmmgrt-5" value="" style="edgeStyle=orthogonalEdgeStyle;html=1;verticalAlign=bottom;endArrow=open;endSize=8;strokeColor=#ff0000;rounded=0;" edge="1" source="TZn8y6N1ud7AlxYmmgrt-4" parent="1">
          <mxGeometry relative="1" as="geometry">
            <mxPoint x="445" y="110" as="targetPoint" />
          </mxGeometry>
        </mxCell>
        <mxCell id="TZn8y6N1ud7AlxYmmgrt-6" value="Sistema de universidade" style="rounded=1;whiteSpace=wrap;html=1;arcSize=40;fontColor=#000000;fillColor=#ffffc0;strokeColor=#ff0000;" vertex="1" parent="1">
          <mxGeometry x="385" y="110" width="120" height="40" as="geometry" />
        </mxCell>
        <mxCell id="TZn8y6N1ud7AlxYmmgrt-7" value="" style="edgeStyle=orthogonalEdgeStyle;html=1;verticalAlign=bottom;endArrow=open;endSize=8;strokeColor=#ff0000;rounded=0;" edge="1" source="TZn8y6N1ud7AlxYmmgrt-6" parent="1">
          <mxGeometry relative="1" as="geometry">
            <mxPoint x="445" y="210" as="targetPoint" />
          </mxGeometry>
        </mxCell>
        <mxCell id="TZn8y6N1ud7AlxYmmgrt-13" style="edgeStyle=orthogonalEdgeStyle;rounded=0;orthogonalLoop=1;jettySize=auto;html=1;" edge="1" parent="1" source="TZn8y6N1ud7AlxYmmgrt-8">
          <mxGeometry relative="1" as="geometry">
            <mxPoint x="290" y="310" as="targetPoint" />
            <Array as="points">
              <mxPoint x="330" y="265" />
              <mxPoint x="330" y="266" />
            </Array>
          </mxGeometry>
        </mxCell>
        <mxCell id="TZn8y6N1ud7AlxYmmgrt-8" value="Cadastros, Processos, Consultas e Relatórios" style="rhombus;whiteSpace=wrap;html=1;fontColor=#000000;fillColor=#ffffc0;strokeColor=#ff0000;" vertex="1" parent="1">
          <mxGeometry x="360" y="210" width="170" height="110" as="geometry" />
        </mxCell>
        <mxCell id="TZn8y6N1ud7AlxYmmgrt-9" value="Consultas e Relatórios" style="edgeStyle=orthogonalEdgeStyle;html=1;align=left;verticalAlign=bottom;endArrow=open;endSize=8;strokeColor=#ff0000;rounded=0;" edge="1" source="TZn8y6N1ud7AlxYmmgrt-8" parent="1">
          <mxGeometry x="-1" relative="1" as="geometry">
            <mxPoint x="600" y="300" as="targetPoint" />
            <Array as="points">
              <mxPoint x="570" y="265" />
              <mxPoint x="570" y="266" />
            </Array>
          </mxGeometry>
        </mxCell>
        <mxCell id="TZn8y6N1ud7AlxYmmgrt-10" value="Processos" style="edgeStyle=orthogonalEdgeStyle;html=1;align=left;verticalAlign=top;endArrow=open;endSize=8;strokeColor=#ff0000;rounded=0;entryX=0.5;entryY=0;entryDx=0;entryDy=0;" edge="1" source="TZn8y6N1ud7AlxYmmgrt-8" parent="1" target="TZn8y6N1ud7AlxYmmgrt-14">
          <mxGeometry x="-1" relative="1" as="geometry">
            <mxPoint x="445" y="370" as="targetPoint" />
          </mxGeometry>
        </mxCell>
        <mxCell id="TZn8y6N1ud7AlxYmmgrt-12" value="Cadastros" style="text;html=1;align=center;verticalAlign=middle;resizable=0;points=[];autosize=1;strokeColor=none;fillColor=none;" vertex="1" parent="1">
          <mxGeometry x="310" y="230" width="80" height="30" as="geometry" />
        </mxCell>
        <mxCell id="TZn8y6N1ud7AlxYmmgrt-14" value="Matrícula dos alunos no curso" style="rounded=1;whiteSpace=wrap;html=1;arcSize=40;fontColor=#000000;fillColor=#ffffc0;strokeColor=#ff0000;" vertex="1" parent="1">
          <mxGeometry x="450" y="370" width="120" height="40" as="geometry" />
        </mxCell>
        <mxCell id="TZn8y6N1ud7AlxYmmgrt-15" value="" style="edgeStyle=orthogonalEdgeStyle;html=1;verticalAlign=bottom;endArrow=open;endSize=8;strokeColor=#ff0000;rounded=0;" edge="1" source="TZn8y6N1ud7AlxYmmgrt-14" parent="1">
          <mxGeometry relative="1" as="geometry">
            <mxPoint x="510" y="470" as="targetPoint" />
          </mxGeometry>
        </mxCell>
        <mxCell id="TZn8y6N1ud7AlxYmmgrt-24" style="edgeStyle=orthogonalEdgeStyle;rounded=0;orthogonalLoop=1;jettySize=auto;html=1;" edge="1" parent="1" source="TZn8y6N1ud7AlxYmmgrt-21">
          <mxGeometry relative="1" as="geometry">
            <mxPoint x="380" y="430" as="targetPoint" />
          </mxGeometry>
        </mxCell>
        <mxCell id="TZn8y6N1ud7AlxYmmgrt-27" style="edgeStyle=orthogonalEdgeStyle;rounded=0;orthogonalLoop=1;jettySize=auto;html=1;" edge="1" parent="1" source="TZn8y6N1ud7AlxYmmgrt-21">
          <mxGeometry relative="1" as="geometry">
            <mxPoint x="290" y="490" as="targetPoint" />
          </mxGeometry>
        </mxCell>
        <mxCell id="TZn8y6N1ud7AlxYmmgrt-32" style="edgeStyle=orthogonalEdgeStyle;rounded=0;orthogonalLoop=1;jettySize=auto;html=1;entryX=0.5;entryY=0;entryDx=0;entryDy=0;" edge="1" parent="1" source="TZn8y6N1ud7AlxYmmgrt-21" target="TZn8y6N1ud7AlxYmmgrt-30">
          <mxGeometry relative="1" as="geometry" />
        </mxCell>
        <mxCell id="TZn8y6N1ud7AlxYmmgrt-21" value="Aluno, Professor ou Coordenador" style="rhombus;whiteSpace=wrap;html=1;fontColor=#000000;fillColor=#ffffc0;strokeColor=#ff0000;" vertex="1" parent="1">
          <mxGeometry x="220" y="310" width="140" height="90" as="geometry" />
        </mxCell>
        <mxCell id="TZn8y6N1ud7AlxYmmgrt-25" value="Cadastro Coordenador" style="rounded=1;whiteSpace=wrap;html=1;arcSize=40;fontColor=#000000;fillColor=#ffffc0;strokeColor=#ff0000;" vertex="1" parent="1">
          <mxGeometry x="320" y="430" width="120" height="40" as="geometry" />
        </mxCell>
        <mxCell id="TZn8y6N1ud7AlxYmmgrt-26" value="" style="edgeStyle=orthogonalEdgeStyle;html=1;verticalAlign=bottom;endArrow=open;endSize=8;strokeColor=#ff0000;rounded=0;" edge="1" source="TZn8y6N1ud7AlxYmmgrt-25" parent="1">
          <mxGeometry relative="1" as="geometry">
            <mxPoint x="160" y="530" as="targetPoint" />
          </mxGeometry>
        </mxCell>
        <mxCell id="TZn8y6N1ud7AlxYmmgrt-45" style="edgeStyle=orthogonalEdgeStyle;rounded=0;orthogonalLoop=1;jettySize=auto;html=1;entryX=0;entryY=0.25;entryDx=0;entryDy=0;" edge="1" parent="1" source="TZn8y6N1ud7AlxYmmgrt-28" target="TZn8y6N1ud7AlxYmmgrt-37">
          <mxGeometry relative="1" as="geometry" />
        </mxCell>
        <mxCell id="TZn8y6N1ud7AlxYmmgrt-28" value="Cadastro Professor" style="rounded=1;whiteSpace=wrap;html=1;arcSize=40;fontColor=#000000;fillColor=#ffffc0;strokeColor=#ff0000;" vertex="1" parent="1">
          <mxGeometry x="230" y="490" width="120" height="40" as="geometry" />
        </mxCell>
        <mxCell id="TZn8y6N1ud7AlxYmmgrt-30" value="Cadastro Aluno" style="rounded=1;whiteSpace=wrap;html=1;arcSize=40;fontColor=#000000;fillColor=#ffffc0;strokeColor=#ff0000;" vertex="1" parent="1">
          <mxGeometry x="70" y="390" width="120" height="40" as="geometry" />
        </mxCell>
        <mxCell id="TZn8y6N1ud7AlxYmmgrt-31" value="" style="edgeStyle=orthogonalEdgeStyle;html=1;verticalAlign=bottom;endArrow=open;endSize=8;strokeColor=#ff0000;rounded=0;entryX=0;entryY=0.5;entryDx=0;entryDy=0;" edge="1" source="TZn8y6N1ud7AlxYmmgrt-30" parent="1" target="TZn8y6N1ud7AlxYmmgrt-14">
          <mxGeometry relative="1" as="geometry">
            <mxPoint x="130" y="490" as="targetPoint" />
          </mxGeometry>
        </mxCell>
        <mxCell id="TZn8y6N1ud7AlxYmmgrt-33" value="Aluno" style="text;html=1;align=center;verticalAlign=middle;resizable=0;points=[];autosize=1;strokeColor=none;fillColor=none;" vertex="1" parent="1">
          <mxGeometry x="185" y="328" width="50" height="30" as="geometry" />
        </mxCell>
        <mxCell id="TZn8y6N1ud7AlxYmmgrt-34" value="Coordenador" style="text;html=1;align=center;verticalAlign=middle;resizable=0;points=[];autosize=1;strokeColor=none;fillColor=none;" vertex="1" parent="1">
          <mxGeometry x="340" y="328" width="90" height="30" as="geometry" />
        </mxCell>
        <mxCell id="TZn8y6N1ud7AlxYmmgrt-35" value="Professor" style="text;html=1;align=center;verticalAlign=middle;resizable=0;points=[];autosize=1;strokeColor=none;fillColor=none;" vertex="1" parent="1">
          <mxGeometry x="220" y="390" width="70" height="30" as="geometry" />
        </mxCell>
        <mxCell id="TZn8y6N1ud7AlxYmmgrt-44" style="edgeStyle=orthogonalEdgeStyle;rounded=0;orthogonalLoop=1;jettySize=auto;html=1;entryX=0.5;entryY=0;entryDx=0;entryDy=0;" edge="1" parent="1" source="TZn8y6N1ud7AlxYmmgrt-37" target="TZn8y6N1ud7AlxYmmgrt-42">
          <mxGeometry relative="1" as="geometry" />
        </mxCell>
        <mxCell id="TZn8y6N1ud7AlxYmmgrt-37" value="Aprovação da matrícula" style="rounded=1;whiteSpace=wrap;html=1;arcSize=40;fontColor=#000000;fillColor=#ffffc0;strokeColor=#ff0000;" vertex="1" parent="1">
          <mxGeometry x="450" y="470" width="120" height="40" as="geometry" />
        </mxCell>
        <mxCell id="TZn8y6N1ud7AlxYmmgrt-41" style="edgeStyle=orthogonalEdgeStyle;rounded=0;orthogonalLoop=1;jettySize=auto;html=1;entryX=1;entryY=0.75;entryDx=0;entryDy=0;" edge="1" parent="1" source="TZn8y6N1ud7AlxYmmgrt-39" target="TZn8y6N1ud7AlxYmmgrt-37">
          <mxGeometry relative="1" as="geometry" />
        </mxCell>
        <mxCell id="TZn8y6N1ud7AlxYmmgrt-43" style="edgeStyle=orthogonalEdgeStyle;rounded=0;orthogonalLoop=1;jettySize=auto;html=1;entryX=1;entryY=0.5;entryDx=0;entryDy=0;" edge="1" parent="1" source="TZn8y6N1ud7AlxYmmgrt-39" target="TZn8y6N1ud7AlxYmmgrt-42">
          <mxGeometry relative="1" as="geometry">
            <mxPoint x="710" y="680" as="targetPoint" />
            <Array as="points">
              <mxPoint x="711" y="325" />
              <mxPoint x="711" y="685" />
            </Array>
          </mxGeometry>
        </mxCell>
        <mxCell id="TZn8y6N1ud7AlxYmmgrt-39" value="Relatório da Aprovação da matrícula" style="rounded=1;whiteSpace=wrap;html=1;arcSize=40;fontColor=#000000;fillColor=#ffffc0;strokeColor=#ff0000;" vertex="1" parent="1">
          <mxGeometry x="540" y="300" width="120" height="50" as="geometry" />
        </mxCell>
        <mxCell id="TZn8y6N1ud7AlxYmmgrt-42" value="" style="ellipse;html=1;shape=endState;fillColor=#000000;strokeColor=#ff0000;" vertex="1" parent="1">
          <mxGeometry x="400" y="670" width="30" height="30" as="geometry" />
        </mxCell>
        <mxCell id="TZn8y6N1ud7AlxYmmgrt-49" style="edgeStyle=orthogonalEdgeStyle;rounded=0;orthogonalLoop=1;jettySize=auto;html=1;" edge="1" parent="1" source="TZn8y6N1ud7AlxYmmgrt-46">
          <mxGeometry relative="1" as="geometry">
            <mxPoint x="50" y="640" as="targetPoint" />
          </mxGeometry>
        </mxCell>
        <mxCell id="TZn8y6N1ud7AlxYmmgrt-46" value="Gerenciar cursos, alunos, professores" style="rhombus;whiteSpace=wrap;html=1;fontColor=#000000;fillColor=#ffffc0;strokeColor=#ff0000;" vertex="1" parent="1">
          <mxGeometry x="70" y="530" width="180" height="90" as="geometry" />
        </mxCell>
        <mxCell id="TZn8y6N1ud7AlxYmmgrt-47" value="Cursos" style="edgeStyle=orthogonalEdgeStyle;html=1;align=left;verticalAlign=bottom;endArrow=open;endSize=8;strokeColor=#ff0000;rounded=0;" edge="1" source="TZn8y6N1ud7AlxYmmgrt-46" parent="1">
          <mxGeometry x="-1" relative="1" as="geometry">
            <mxPoint x="260" y="600" as="targetPoint" />
          </mxGeometry>
        </mxCell>
        <mxCell id="TZn8y6N1ud7AlxYmmgrt-48" value="Alunos" style="edgeStyle=orthogonalEdgeStyle;html=1;align=left;verticalAlign=top;endArrow=open;endSize=8;strokeColor=#ff0000;rounded=0;entryX=0.5;entryY=0;entryDx=0;entryDy=0;" edge="1" source="TZn8y6N1ud7AlxYmmgrt-46" parent="1" target="TZn8y6N1ud7AlxYmmgrt-53">
          <mxGeometry x="-1" relative="1" as="geometry">
            <mxPoint x="160" y="660" as="targetPoint" />
          </mxGeometry>
        </mxCell>
        <mxCell id="TZn8y6N1ud7AlxYmmgrt-50" value="Professores" style="text;html=1;align=center;verticalAlign=middle;resizable=0;points=[];autosize=1;strokeColor=none;fillColor=none;" vertex="1" parent="1">
          <mxGeometry x="20" y="540" width="90" height="30" as="geometry" />
        </mxCell>
        <mxCell id="TZn8y6N1ud7AlxYmmgrt-51" value="Gerenciamento dos Professores" style="rounded=1;whiteSpace=wrap;html=1;arcSize=40;fontColor=#000000;fillColor=#ffffc0;strokeColor=#ff0000;" vertex="1" parent="1">
          <mxGeometry x="-10" y="640" width="120" height="40" as="geometry" />
        </mxCell>
        <mxCell id="TZn8y6N1ud7AlxYmmgrt-52" value="" style="edgeStyle=orthogonalEdgeStyle;html=1;verticalAlign=bottom;endArrow=open;endSize=8;strokeColor=#ff0000;rounded=0;entryX=0;entryY=0;entryDx=0;entryDy=0;" edge="1" source="TZn8y6N1ud7AlxYmmgrt-51" parent="1" target="TZn8y6N1ud7AlxYmmgrt-42">
          <mxGeometry relative="1" as="geometry">
            <mxPoint x="50" y="740" as="targetPoint" />
          </mxGeometry>
        </mxCell>
        <mxCell id="TZn8y6N1ud7AlxYmmgrt-53" value="Activity" style="rounded=1;whiteSpace=wrap;html=1;arcSize=40;fontColor=#000000;fillColor=#ffffc0;strokeColor=#ff0000;" vertex="1" parent="1">
          <mxGeometry x="100" y="680" width="120" height="40" as="geometry" />
        </mxCell>
        <mxCell id="TZn8y6N1ud7AlxYmmgrt-54" value="" style="edgeStyle=orthogonalEdgeStyle;html=1;verticalAlign=bottom;endArrow=open;endSize=8;strokeColor=#ff0000;rounded=0;entryX=0;entryY=0.5;entryDx=0;entryDy=0;" edge="1" source="TZn8y6N1ud7AlxYmmgrt-53" parent="1" target="TZn8y6N1ud7AlxYmmgrt-42">
          <mxGeometry relative="1" as="geometry">
            <mxPoint x="160" y="780" as="targetPoint" />
          </mxGeometry>
        </mxCell>
        <mxCell id="TZn8y6N1ud7AlxYmmgrt-55" value="Gerenciamento dos Cursos" style="rounded=1;whiteSpace=wrap;html=1;arcSize=40;fontColor=#000000;fillColor=#ffffc0;strokeColor=#ff0000;" vertex="1" parent="1">
          <mxGeometry x="200" y="600" width="120" height="40" as="geometry" />
        </mxCell>
        <mxCell id="TZn8y6N1ud7AlxYmmgrt-56" value="" style="edgeStyle=orthogonalEdgeStyle;html=1;verticalAlign=bottom;endArrow=open;endSize=8;strokeColor=#ff0000;rounded=0;entryX=0.233;entryY=-0.1;entryDx=0;entryDy=0;entryPerimeter=0;" edge="1" source="TZn8y6N1ud7AlxYmmgrt-55" parent="1" target="TZn8y6N1ud7AlxYmmgrt-42">
          <mxGeometry relative="1" as="geometry">
            <mxPoint x="260" y="700" as="targetPoint" />
          </mxGeometry>
        </mxCell>
      </root>
    </mxGraphModel>
  </diagram>
</mxfile>
